#!OML:ASF E:\emotionWalksFemale\Project 1\Capture day 1\Session 1\Female1.ASF
:FULLY-SPECIFIED
:DEGREES
1108
root 20.6526 15.1155 -34.0699 17.9767 53.4855 -338.015
lowerback 8.93714 -3.12667 -7.14553
upperback -2.33399 -5.10155 -1.40054
thorax -7.00071 -2.21509 3.25584
lowerneck 8.62082 -14.4197 -16.9472
upperneck 0.997639 -20.941 17.3061
head 2.55104 -10.7721 7.33533
rclavicle 7.15625e-015 6.36111e-015
rhumerus -62.5282 14.895 -85.0108
rradius 28.9952
rwrist 22.9808
rhand 1.91425 -52.6281
rfingers 7.12502
rthumb 27.4226 -440.652
lclavicle 7.15625e-015 6.36111e-015
lhumerus -2.84383 -5.74947 78.6272
lradius 41.1913
lwrist -23.2145
lhand -16.0786 -29.7201
lfingers 7.12502
lthumb 10.1243 0.0163728
rfemur -33.3936 1.72063 21.5651
rtibia 28.3822
rfoot -20.1884 -33.381
rtoes 19.0372
lfemur 9.28248 -14.2233 -35.1057
ltibia 10.9254
lfoot -17.4391 25.6027
ltoes -34.5232
1109
root 20.7811 15.101 -33.9698 18.1891 53.3107 -337.83
lowerback 8.63222 -3.14234 -7.1498
upperback -2.3883 -5.10265 -1.47613
thorax -6.89052 -2.22104 3.15898
lowerneck 8.58536 -14.3352 -17.024
upperneck 1.06995 -20.8431 17.4541
head 2.58577 -10.7232 7.39432
rclavicle -3.17559e-014 -2.62396e-014
rhumerus -63.0361 14.873 -84.8327
rradius 29.5091
rwrist 22.7437
rhand 2.14342 -52.3588
rfingers 7.12502
rthumb 27.6417 -440.348
lclavicle -3.17559e-014 -2.62396e-014
lhumerus -2.15948 -7.82075 79.1389
lradius 42.8299
lwrist -22.2994
lhand -17.3918 -30.8139
lfingers 7.12502
lthumb 8.85729 -1.01982
rfemur -33.422 7.42443 19.0337
rtibia 26.5489
rfoot -25.7826 -38.6055
rtoes 27.3702
lfemur 10.514 -13.3856 -35.1959
ltibia 9.52576
lfoot -15.993 25.2682
ltoes -37.845
1110
root 20.9086 15.0793 -33.8659 18.4347 53.1602 -337.604
lowerback 8.31724 -3.16377 -7.27137
upperback -2.46145 -5.12116 -1.50402
thorax -6.77925 -2.22904 3.17887
lowerneck 8.73462 -14.3195 -16.8786
upperneck 0.951406 -20.8094 17.3289
head 2.49201 -10.712 7.3604
rclavicle -2.91716e-014 1.59028e-014
rhumerus -63.7074 14.8118 -84.5495
rradius 30.3392
rwrist 22.4538
rhand 2.20358 -52.0607
rfingers 7.12502
rthumb 27.6993 -440.041
lclavicle -2.91716e-014 1.59028e-014
lhumerus -1.69779 -9.90621 79.645
lradius 44.6359
lwrist -21.2684
lhand -18.4501 -32.0789
lfingers 7.12502
lthumb 7.83593 -2.24413
rfemur -33.7367 12.2457 16.5556
rtibia 25.0971
rfoot -32.8684 -42.1597
rtoes 34.9284
lfemur 11.7393 -12.5841 -35.2548
ltibia 8.23237
lfoot -16.0961 24.3068
ltoes -36.9782
1111
root 21.0349 15.0558 -33.758 18.7539 53.0902 -337.289
lowerback 8.02536 -3.23665 -7.50492
upperback -2.53208 -5.21519 -1.42653
thorax -6.65156 -2.26815 3.38084
lowerneck 8.72012 -14.3012 -16.9978
upperneck 0.936885 -20.7896 17.2292
head 2.4878 -10.7011 7.34721
rclavicle -4.57717e-014 2.38542e-015
rhumerus -64.4366 14.7185 -83.9818
rradius 31.5911
rwrist 21.9568
rhand 1.96713 -52.1515
rfingers 7.12502
rthumb 27.4732 -440.168
lclavicle -4.57717e-014 2.38542e-015
lhumerus -1.34379 -11.7464 80.2468
lradius 46.5073
lwrist -20.4048
lhand -19.1206 -33.5533
lfingers 7.12502
lthumb 7.18878 -3.69537
rfemur -34.2886 16.9196 13.8822
rtibia 23.9754
rfoot -40.402 -45.0413
rtoes 40.3921
lfemur 12.7791 -11.8814 -35.3129
ltibia 7.30916
lfoot -16.2954 23.293
ltoes -35.8127
1112
root 21.1615 15.0289 -33.6503 18.9153 53.1007 -337.102
lowerback 7.87762 -3.33864 -7.27597
upperback -2.65234 -5.32964 -1.57841
thorax -6.71697 -2.3318 3.10295
lowerneck 8.82498 -14.2203 -17.0136
upperneck 0.972425 -20.7064 17.4041
head 2.48837 -10.6661 7.41886
rclavicle 1.29924e-014 -1.74931e-014
rhumerus -64.9724 14.3065 -83.5898
rradius 32.3869
rwrist 21.411
rhand 1.73844 -52.1257
rfingers 7.12502
rthumb 27.2544 -440.176
lclavicle 1.29924e-014 -1.74931e-014
lhumerus -1.17535 -13.8962 80.4609
lradius 48.475
lwrist -19.652
lhand -19.9253 -34.802
lfingers 7.12502
lthumb 6.41197 -4.91909
rfemur -35.1782 22.7824 10.6179
rtibia 23.2274
rfoot -49.7121 -47.9085
rtoes 44.986
lfemur 13.4213 -11.215 -35.2881
ltibia 7.25581
lfoot -16.1069 22.5905
ltoes -36.2495
1113
root 21.2866 15.0019 -33.5301 18.9865 53.09 -336.988
lowerback 7.6237 -3.40981 -7.3097
upperback -2.70389 -5.40853 -1.6068
thorax -6.6183 -2.37313 3.08343
lowerneck 8.87757 -14.2239 -16.8397
upperneck 0.890871 -20.6887 17.2937
head 2.42258 -10.658 7.37372
rclavicle 8.27441e-015 3.65764e-014
rhumerus -64.9088 14.0856 -83.1566
rradius 32.4519
rwrist 20.5847
rhand 1.51745 -51.9583
rfingers 7.12502
rthumb 27.043 -440.042
lclavicle 8.27441e-015 3.65764e-014
lhumerus -1.0926 -16.1258 80.7251
lradius 50.6428
lwrist -18.6355
lhand -20.7008 -35.7514
lfingers 7.12502
lthumb 5.66322 -5.84707
rfemur -36.6222 30.0155 6.5364
rtibia 22.6996
rfoot -62.0522 -50.1381
rtoes 49.3573
lfemur 14.2507 -10.5242 -35.1502
ltibia 7.00234
lfoot -16.0548 21.6993
ltoes -35.4618
1114
root 21.4123 14.9758 -33.4202 19.2592 53.1138 -336.763
lowerback 7.34474 -3.52158 -7.23938
upperback -2.78553 -5.52873 -1.59784
thorax -6.53836 -2.43735 3.04918
lowerneck 8.81923 -14.2015 -16.8754
upperneck 0.778572 -20.6414 17.2117
head 2.38529 -10.6321 7.35773
rclavicle 1.31098e-013 3.81667e-014
rhumerus -64.2863 13.9539 -82.5496
rradius 32.1833
rwrist 19.4802
rhand 1.87783 -52.2918
rfingers 7.12502
rthumb 27.3877 -440.321
lclavicle 1.31098e-013 3.81667e-014
lhumerus -1.0892 -18.2433 81.1185
lradius 52.9118
lwrist -17.556
lhand -21.1758 -36.6084
lfingers 7.12502
lthumb 5.20457 -6.69232
rfemur -39.3561 38.2609 0.916129
rtibia 22.3975
rfoot -77.6574 -49.2567
rtoes 54.2742
lfemur 14.867 -9.92098 -35.0258
ltibia 6.9318
lfoot -16.2221 20.4815
ltoes -33.8549
